<?xml version="1.0" encoding="UTF-8" standalone="no"?>
<svg
   id="Livello_2"
   viewBox="0 0 4828.9601 1984.7025"
   version="1.1"
   sodipodi:docname="Logo_il_garagino.svg"
   width="4828.96"
   height="1984.7025"
   inkscape:version="1.4.2 (f4327f4, 2025-05-13)"
   xmlns:inkscape="http://www.inkscape.org/namespaces/inkscape"
   xmlns:sodipodi="http://sodipodi.sourceforge.net/DTD/sodipodi-0.dtd"
   xmlns="http://www.w3.org/2000/svg"
   xmlns:svg="http://www.w3.org/2000/svg">
  <sodipodi:namedview
     id="namedview24"
     pagecolor="#505050"
     bordercolor="#eeeeee"
     borderopacity="1"
     inkscape:showpageshadow="0"
     inkscape:pageopacity="0"
     inkscape:pagecheckerboard="0"
     inkscape:deskcolor="#505050"
     inkscape:zoom="0.35377598"
     inkscape:cx="1262.0981"
     inkscape:cy="1194.2586"
     inkscape:window-width="2560"
     inkscape:window-height="1369"
     inkscape:window-x="1912"
     inkscape:window-y="-8"
     inkscape:window-maximized="1"
     inkscape:current-layer="Livello_2">
    <inkscape:page
       x="0"
       y="0"
       width="4828.96"
       height="1984.7025"
       id="page2"
       margin="0"
       bleed="0" />
  </sodipodi:namedview>
  <defs
     id="defs6">
    <style
       id="style1">
      .cls-1 {
        fill: #8ea4a8;
      }

      .cls-2 {
        fill: #71838e;
      }

      .cls-3 {
        fill: #4c688d;
      }

      .cls-4 {
        fill: #001251;
      }

      .cls-5 {
        fill: #e2cf9c;
      }

      .cls-6 {
        fill: #021257;
      }

      .cls-7 {
        fill: #919a9c;
      }

      .cls-8 {
        fill: #738f99;
      }

      .cls-9 {
        fill: #7385b4;
      }

      .cls-10 {
        fill: #7c8f95;
      }

      .cls-11 {
        fill: #7a90a3;
      }

      .cls-12, .cls-13, .cls-14 {
        isolation: isolate;
      }

      .cls-15 {
        fill: #778f9d;
      }

      .cls-16 {
        fill: url(#Sfumatura_senza_nome);
      }

      .cls-17 {
        fill: #67809a;
      }

      .cls-18 {
        fill: #041657;
      }

      .cls-19 {
        fill: #728ea9;
      }

      .cls-13 {
        fill: none;
        stroke: #000;
        stroke-width: .1px;
      }

      .cls-13, .cls-14 {
        font-family: OogieBoogie, OogieBoogie;
        font-size: 6px;
      }

      .cls-20 {
        fill: #5d7a91;
      }

      .cls-21 {
        fill: #aeac9f;
      }

      .cls-14 {
        fill: #fff;
      }

      .cls-22 {
        fill: #bbad8f;
      }

      .cls-23 {
        fill: #648198;
      }

      .cls-24 {
        fill: #668098;
      }
    </style>
    <linearGradient
       id="Sfumatura_senza_nome"
       data-name="Sfumatura senza nome"
       x1="32.200001"
       y1="67.660004"
       x2="82.860001"
       y2="67.660004"
       gradientTransform="matrix(0.99887337,0.04745513,0.04745513,-0.99887337,-26.25,87.72)"
       gradientUnits="userSpaceOnUse">
      <stop
         offset="0"
         stop-color="#0d9664"
         id="stop1" />
      <stop
         offset=".11"
         stop-color="#3daa82"
         id="stop2" />
      <stop
         offset=".35"
         stop-color="#b5dfd0"
         id="stop3" />
      <stop
         offset=".5"
         stop-color="#fff"
         id="stop4" />
      <stop
         offset=".89"
         stop-color="#e93b46"
         id="stop5" />
      <stop
         offset="1"
         stop-color="#e30613"
         id="stop6" />
    </linearGradient>
  </defs>
  <g
     id="Livello_2-2"
     data-name="Livello_2"
     transform="matrix(41.15867,0,0,44.22029,190.03802,9.9937086)">
    <g
       id="Brand_Identity">
      <g
         id="Logo">
        <g
           id="Vespa">
          <polygon
             class="cls-16"
             points="33.49,44.55 10.15,0 34.36,25.51 60.76,2.4 "
             id="polygon6"
             style="fill:url(#Sfumatura_senza_nome)" />
          <g
             id="Colori_scuri">
            <path
               class="cls-6"
               d="m 69.49,24.72 -17.5,-1.44 c 0,0 -7.09,-1.5 -9.45,-3.76 0,0 -1.72,-3.85 -2.71,-5.02 -0.99,-1.17 -1.94,-1.54 -1.94,-1.54 0,0 -2.31,-1.69 -5.33,-0.37 0,0 -1.2,0.14 -2.69,1.95 -1.52,1.68 -1.86,3.64 -1.86,3.64 0,0 -1.21,1.71 -4.89,3.05 0,0 -2.8,1 -6.04,1.43 -3.24,0.43 -9.89,0.59 -9.89,0.59 l -6.48,0.13 c 0,0 -1.41,0.73 -0.26,1.7 l 3.03,0.48 -0.75,1 -0.47,1.17 -0.06,1.38 0.96,1 2.22,0.06 4.99,-1.24 2.13,-0.34 1.82,-0.66 3.59,-0.57 c 0,0 2.46,-0.72 4.03,-0.53 l 3.8,0.17 3.37,0.67 c 0,0 1.49,1.49 0.15,1.57 -1.34,0.08 -8.5,0.67 -8.5,0.67 l -2.03,0.67 1.3,0.8 c 0,0 0.86,-0.65 1.52,-0.57 l 2.61,-0.18 4.1,-0.39 4.41,-0.11 c 0,0 0.29,-0.15 3.47,0.14 3.18,0.29 6.67,0.55 6.67,0.55 l 3.38,0.28 c 0,0 1.36,0.06 3.74,1.23 l 1.94,0.13 c 0,0 -0.63,-1.14 -4.33,-1.89 -3.7,-0.75 -8.95,-1.02 -8.95,-1.02 0,0 0.33,-1.62 3.1,-2.06 2.77,-0.44 6.2,0.2 6.2,0.2 l 5.57,0.77 2.15,0.87 2.58,0.27 6.35,1.78 c 0,0 2.3,0.55 2.2,-2.74 0,0 0.16,-1.24 -1.09,-1.6 -1.25,-0.36 3.68,-0.7 3.68,-0.7 l 0.13,-1.63 h 0.03 z m -35.17,2.17 c -7.41,-0.64 -6.74,-13.27 0.89,-12.84 7.63,0.43 6.75,13.5 -0.89,12.84 z"
               id="path6" />
            <g
               id="g7">
              <path
                 class="cls-18"
                 d="m 36.12,13.96 -0.11,1.33 c 0,0 0.57,-0.76 0.74,-0.51 0.17,0.25 0.34,1.15 0.34,1.15 0,0 0.36,-1.42 0.67,-1.17"
                 id="path7" />
              <ellipse
                 class="cls-5"
                 cx="34.790001"
                 cy="20.450001"
                 rx="6.4099998"
                 ry="5.7800002"
                 transform="rotate(-85.29,34.787016,20.449626)"
                 id="ellipse7" />
            </g>
            <g
               id="Sfumatura">
              <path
                 class="cls-9"
                 d="m 29.43,18.69 c 0,0 0.36,-0.06 0.36,0.18 0,0.24 -0.29,2.36 -0.29,2.36 0,0 0.23,-0.5 0.44,-0.42 0.21,0.08 0.21,2.66 0.21,2.66 0,0 0.4,-2.82 0.58,-2.68 0.18,0.14 0.16,4.05 0.16,4.05 H 31 c 0,0 0.41,-3.67 0.58,-3.42 0.17,0.25 0.02,3.89 0.02,3.89 0,0 0.13,0.19 0.22,0.15 0.09,-0.04 0.39,-4.69 0.56,-4.68 0.17,0.01 0.26,-0.09 0.35,0.09 0.09,0.18 -0.25,4.9 -0.1,4.87 0.15,-0.03 0.53,-4.42 0.72,-4.41 0.19,0.01 0.57,0.07 0.74,0.3 0.17,0.23 0.38,0.8 0.29,1.42 -0.09,0.62 -0.33,2.95 -0.14,2.97 0.19,0.02 0.24,-0.3 0.34,-0.38 0.1,-0.08 0.35,-5 0.61,-5 0.26,0 0.63,-0.06 0.56,0.56 -0.07,0.62 -0.07,3.22 0.09,3.17 0.15,-0.05 0.79,-5.19 1.04,-5.09 0.25,0.1 0.33,0.43 0.33,0.43 0,0 -0.61,5.36 -0.45,5.46 0.16,0.1 0.3,-0.08 0.3,-0.08 0,0 0,-3.52 0.2,-3.51 0.2,0.01 0.4,0.03 0.44,0.12 0.04,0.09 -0.27,4 -0.12,4.06 0.14,0.07 0.4,0.03 0.4,0.03 0,0 0,-4.05 0.12,-4.08 0.13,-0.03 0.38,-0.21 0.43,0 0.05,0.21 -0.15,3.32 -0.07,3.39 0.08,0.07 0.31,0.13 0.31,0.13 0,0 -0.03,-4.05 0.12,-4.03 0.15,0.02 0.33,-0.15 0.4,0.03 0.07,0.18 0.09,2.72 0.2,2.75 0.1,0.03 0.27,-0.18 0.36,-0.26 0.09,-0.07 -0.19,-2.89 0.05,-2.87 0.24,0.02 0.21,-0.18 0.23,0.02 0.02,0.2 0.12,1.13 0.12,1.13 0,0 0.24,-0.09 0.23,-0.67 -0.01,-0.58 0.2,-2.27 0.2,-2.27 l 0.2,1.71 c 0,0 -0.06,1.9 -0.69,2.99 -0.63,1.09 -1.46,2.81 -4.26,3.55 -2.8,0.74 -5.16,-1.82 -5.16,-1.82 0,0 -1.51,-1.49 -1.71,-4.47 0,0 0.07,-1.91 0.38,-2.33 z"
                 id="path8" />
            </g>
            <path
               class="cls-4"
               d="m 29.35,18.38 c 0,0 0.36,-0.05 0.35,0.18 -0.01,0.23 -0.28,2.3 -0.28,2.3 0,0 0.23,-0.48 0.43,-0.4 0.2,0.08 0.21,2.59 0.21,2.59 0,0 0.39,-2.75 0.57,-2.61 0.18,0.14 0.16,3.94 0.16,3.94 h 0.1 c 0,0 0.4,-3.57 0.57,-3.33 0.17,0.24 0.02,3.78 0.02,3.78 0,0 0.13,0.18 0.22,0.15 0.09,-0.03 0.38,-4.57 0.54,-4.55 0.16,0.02 0.26,-0.08 0.35,0.09 0.09,0.17 -0.25,4.77 -0.1,4.74 0.15,-0.03 0.52,-4.31 0.71,-4.29 0.19,0.02 0.56,0.07 0.73,0.29 0.17,0.22 0.37,0.78 0.28,1.38 -0.09,0.6 -0.32,2.87 -0.13,2.89 0.19,0.02 0.24,-0.29 0.34,-0.36 0.1,-0.07 0.34,-4.86 0.6,-4.86 0.26,0 0.62,-0.05 0.55,0.55 -0.06,0.6 -0.06,3.13 0.09,3.08 0.15,-0.05 0.77,-5.05 1.01,-4.95 0.24,0.1 0.32,0.42 0.32,0.42 0,0 -0.6,5.22 -0.44,5.32 0.16,0.1 0.3,-0.08 0.3,-0.08 0,0 0,-3.43 0.2,-3.41 0.2,0.02 0.39,0.03 0.43,0.12 0.04,0.09 -0.26,3.89 -0.12,3.95 0.14,0.06 0.39,0.03 0.39,0.03 0,0 0,-3.94 0.12,-3.97 0.13,-0.03 0.37,-0.2 0.42,0 0.05,0.19 -0.14,3.23 -0.06,3.3 0.08,0.07 0.3,0.13 0.3,0.13 0,0 -0.03,-3.94 0.11,-3.92 0.14,0.02 0.33,-0.14 0.39,0.03 0.07,0.18 0.1,2.65 0.2,2.68 0.1,0.03 0.27,-0.18 0.35,-0.25 0.09,-0.07 -0.19,-2.81 0.04,-2.79 0.23,0.02 0.2,-0.17 0.23,0.02 0.03,0.19 0.12,1.1 0.12,1.1 0,0 0.24,-0.09 0.22,-0.65 -0.02,-0.56 0.19,-2.21 0.19,-2.21 l 0.2,1.66 c 0,0 -0.05,1.85 -0.68,2.91 -0.63,1.06 -1.43,2.73 -4.19,3.45 -2.76,0.72 -5.07,-1.77 -5.07,-1.77 0,0 -1.48,-1.45 -1.68,-4.35 0,0 0.06,-1.86 0.37,-2.27 z"
               id="path9" />
          </g>
          <g
             id="Colori_chiari">
            <path
               class="cls-20"
               d="m 35.36,12.91 c -3.46,-0.28 -6.53,2.94 -6.86,7 -0.33,4.06 2.21,7.57 5.68,7.86 3.47,0.29 6.55,-2.77 6.89,-6.83 0.34,-4.06 -2.24,-7.75 -5.7,-8.03 v 0 z m -1.04,13.84 c -7.38,-0.53 -6.23,-13.34 1.01,-12.56 7.24,0.78 6.43,13.1 -1.01,12.56 z"
               id="path10" />
            <path
               class="cls-10"
               d="m 58.37,27.15 6.69,1.97 c 0,0 0.71,0.23 0.98,0.08 0.27,-0.15 -0.25,-1.02 -0.25,-1.02 L 59.7,26.51 c 0,0 -1.64,-0.11 -1.53,0.31 0.11,0.42 0.2,0.33 0.2,0.33 z"
               id="path11" />
            <path
               class="cls-22"
               d="M 56.57,26.14 54.4,26.3 c 0,0 -1.07,0.5 -0.54,0.73 0.53,0.23 2.67,0.55 2.67,0.55 0,0 0.6,-0.64 0.03,-1.44 z"
               id="path12" />
            <polyline
               class="cls-8"
               points="42.9 23.18 42.79 24.51 45.09 24.7 43 23.19"
               id="polyline12" />
            <path
               class="cls-17"
               d="m 67.01,25.6 c 0,0 -2.94,0.68 -7.95,0.35 l 0.07,-0.89 c 0,0 2.66,-0.03 7.88,0.54 z"
               id="path13" />
            <path
               class="cls-2"
               d="m 41.65,20.61 c 3.28,3.8 9.76,4.4 9.76,4.4 l -0.1,-0.86 c -7.06,-1.88 -9.59,-4.36 -9.59,-4.36 l -0.07,0.83 v 0 z"
               id="path14" />
            <path
               class="cls-3"
               d="m 51.9,24.5 c 0,0 -0.03,0.99 0.14,0.87 0.17,-0.12 6.51,0.01 6.51,0.01 0,0 -0.48,-0.37 -1.36,-0.44 L 51.91,24.5 v 0 z"
               id="path15" />
            <path
               class="cls-1"
               d="m 1.06,24.15 c 0,0 5.04,0.36 5.87,0.18 0.83,-0.18 3.36,-0.56 3.58,-0.49 0.22,0.07 0.08,1.46 0.08,1.46 0,0 -6.77,-0.36 -9.23,-0.65 0,0 -0.67,-0.31 -0.29,-0.5 z"
               id="path16" />
            <path
               class="cls-23"
               d="m 11.58,23.93 c 0,0 0.83,-0.26 3.01,-0.05 0,0 2.15,-0.07 2.68,0 0.53,0.07 0.05,1.12 0.05,1.12 l -3.17,-0.43 c 0,0 -2.18,0.13 -2.38,-0.25 l -0.19,-0.38 v 0 z"
               id="path17" />
            <path
               class="cls-11"
               d="m 3.08,28.72 c 0,0 -0.37,-1.65 0.57,-1.82 0.94,-0.17 5.45,-1.17 5.45,-1.17 0,0 1.47,-0.27 2.33,0.19 0.86,0.46 -7.53,1.8 -7.53,1.8 0,0 -0.64,0.31 -0.81,0.99 v 0 z"
               id="path18" />
            <path
               class="cls-21"
               d="m 12.86,25.35 c 0,0 -0.85,0.18 -0.66,1.95 0,0 0.46,0.12 0.53,-0.37 l 1.59,0.02 c 0,0 0.79,0.18 0.83,-0.6 0.04,-0.78 -0.13,-0.82 -0.13,-0.82 z"
               id="path19" />
            <path
               class="cls-7"
               d="m 18.04,25.05 c 0,0 -0.2,-1.63 0.51,-1.74 0.71,-0.11 4.06,-0.61 6.12,-1.89 2.06,-1.28 3.1,-1.78 3.39,-1.89 0.29,-0.11 -0.04,1.97 -0.07,2.53 -0.01,0.25 -1.06,-0.09 -1.05,-0.09 0,0 0.74,-0.51 0.76,-1.13 0.02,-0.62 -2.52,1.55 -2.52,1.55 0,0 -5.15,1.96 -6.21,1.96 -1.06,0 -0.92,0.7 -0.92,0.7 z"
               id="path20" />
            <path
               class="cls-24"
               d="m 24.34,24.06 c 0,0 1.56,-1 1.97,-0.92 0.41,0.08 0.4,0.57 0.4,0.57 0,0 0.1,0.44 -0.04,0.54 -0.14,0.1 -2.33,-0.19 -2.33,-0.19 z"
               id="path21" />
            <path
               class="cls-19"
               d="m 28.22,22.99 0.38,2.08 1.12,1.45 c 0,0 -1.23,-0.68 -2.34,-0.69 -1.11,-0.01 -5.71,0.25 -5.71,0.25 0,0 6,0.24 6.53,0.54 0.53,0.3 1.72,0.15 2.13,1.18 0,0 2.23,0.01 2.22,0.82 -0.01,0.81 -0.05,0.58 -0.05,0.58 0,0 -0.49,0.15 1.55,0.25 l 0.09,-1.12 c 0,0 -2.33,-0.65 -2.95,-1.2 -0.62,-0.55 -2.8,-2.63 -2.98,-4.14 v 0 z"
               id="path22" />
            <path
               class="cls-15"
               d="m 34.82,28.38 -0.09,1.12 1.34,-0.07 c 0,0 0.02,-1.22 0.22,-1.35 0.2,-0.13 1.14,-0.67 1.46,-0.42 0.32,0.25 0.64,0.3 0.64,0.3 0,0 0.64,-0.96 1.02,-0.89 l -0.06,-0.66 c 0,0 -0.53,0.01 -0.63,0.17 -0.1,0.16 -1.15,0.8 -1.15,0.8 0,0 -2.74,0.81 -2.76,1 z"
               id="path23" />
          </g>
        </g>
        <g
           class="cls-12"
           id="g24">
          <text
             class="cls-14"
             transform="translate(20.29,36.86)"
             id="text23"><tspan
               x="0"
               y="0"
               id="tspan23">il Garagino</tspan></text>
          <text
             class="cls-13"
             transform="translate(20.29,36.86)"
             id="text24"><tspan
               x="0"
               y="0"
               id="tspan24">il Garagino</tspan></text>
        </g>
      </g>
    </g>
  </g>
</svg>
