<?xml version="1.0" encoding="UTF-8"?>
<svg id="Livello_2" xmlns="http://www.w3.org/2000/svg" xmlns:xlink="http://www.w3.org/1999/xlink" viewBox="0 0 69.49 44.55">
  <defs>
    <style>
      .cls-1 {
        fill: #8ea4a8;
      }

      .cls-2 {
        fill: #71838e;
      }

      .cls-3 {
        fill: #4c688d;
      }

      .cls-4 {
        fill: #001251;
      }

      .cls-5 {
        fill: #e2cf9c;
      }

      .cls-6 {
        fill: #021257;
      }

      .cls-7 {
        fill: #919a9c;
      }

      .cls-8 {
        fill: #738f99;
      }

      .cls-9 {
        fill: #7385b4;
      }

      .cls-10 {
        fill: #7c8f95;
      }

      .cls-11 {
        fill: #7a90a3;
      }

      .cls-12, .cls-13, .cls-14 {
        isolation: isolate;
      }

      .cls-15 {
        fill: #778f9d;
      }

      .cls-16 {
        fill: url(#Sfumatura_senza_nome);
      }

      .cls-17 {
        fill: #67809a;
      }

      .cls-18 {
        fill: #041657;
      }

      .cls-19 {
        fill: #728ea9;
      }

      .cls-13 {
        fill: none;
        stroke: #000;
        stroke-width: .1px;
      }

      .cls-13, .cls-14 {
        font-family: OogieBoogie, OogieBoogie;
        font-size: 6px;
      }

      .cls-20 {
        fill: #5d7a91;
      }

      .cls-21 {
        fill: #aeac9f;
      }

      .cls-14 {
        fill: #fff;
      }

      .cls-22 {
        fill: #bbad8f;
      }

      .cls-23 {
        fill: #648198;
      }

      .cls-24 {
        fill: #668098;
      }
    </style>
    <linearGradient id="Sfumatura_senza_nome" data-name="Sfumatura senza nome" x1="32.2" y1="67.66" x2="82.86" y2="67.66" gradientTransform="translate(-26.25 87.72) rotate(2.72) scale(1 -1)" gradientUnits="userSpaceOnUse">
      <stop offset="0" stop-color="#0d9664"/>
      <stop offset=".11" stop-color="#3daa82"/>
      <stop offset=".35" stop-color="#b5dfd0"/>
      <stop offset=".5" stop-color="#fff"/>
      <stop offset=".89" stop-color="#e93b46"/>
      <stop offset="1" stop-color="#e30613"/>
    </linearGradient>
  </defs>
  <g id="Livello_2-2" data-name="Livello_2">
    <g id="Brand_Identity">
      <g id="Logo">
        <g id="Vespa">
          <polygon class="cls-16" points="60.76 2.4 33.49 44.55 10.15 0 34.36 25.51 60.76 2.4"/>
          <g id="Colori_scuri">
            <path class="cls-6" d="M69.49,24.72l-17.5-1.44s-7.09-1.5-9.45-3.76c0,0-1.72-3.85-2.71-5.02-.99-1.17-1.94-1.54-1.94-1.54,0,0-2.31-1.69-5.33-.37,0,0-1.2.14-2.69,1.95-1.52,1.68-1.86,3.64-1.86,3.64,0,0-1.21,1.71-4.89,3.05,0,0-2.8,1-6.04,1.43s-9.89.59-9.89.59l-6.48.13s-1.41.73-.26,1.7l3.03.48-.75,1-.47,1.17-.06,1.38.96,1,2.22.06,4.99-1.24,2.13-.34,1.82-.66,3.59-.57s2.46-.72,4.03-.53l3.8.17,3.37.67s1.49,1.49.15,1.57-8.5.67-8.5.67l-2.03.67,1.3.8s.86-.65,1.52-.57l2.61-.18,4.1-.39,4.41-.11s.29-.15,3.47.14c3.18.29,6.67.55,6.67.55l3.38.28s1.36.06,3.74,1.23l1.94.13s-.63-1.14-4.33-1.89c-3.7-.75-8.95-1.02-8.95-1.02,0,0,.33-1.62,3.1-2.06s6.2.2,6.2.2l5.57.77,2.15.87,2.58.27,6.35,1.78s2.3.55,2.2-2.74c0,0,.16-1.24-1.09-1.6s3.68-.7,3.68-.7l.13-1.63h.03ZM34.32,26.89c-7.41-.64-6.74-13.27.89-12.84,7.63.43,6.75,13.5-.89,12.84Z"/>
            <g>
              <path class="cls-18" d="M36.12,13.96l-.11,1.33s.57-.76.74-.51.34,1.15.34,1.15c0,0,.36-1.42.67-1.17"/>
              <ellipse class="cls-5" cx="34.79" cy="20.45" rx="6.41" ry="5.78" transform="translate(11.55 53.44) rotate(-85.29)"/>
            </g>
            <g id="Sfumatura">
              <path class="cls-9" d="M29.43,18.69s.36-.06.36.18-.29,2.36-.29,2.36c0,0,.23-.5.44-.42.21.08.21,2.66.21,2.66,0,0,.4-2.82.58-2.68s.16,4.05.16,4.05h.11s.41-3.67.58-3.42.02,3.89.02,3.89c0,0,.13.19.22.15s.39-4.69.56-4.68.26-.09.35.09-.25,4.9-.1,4.87.53-4.42.72-4.41.57.07.74.3c.17.23.38.8.29,1.42s-.33,2.95-.14,2.97.24-.3.34-.38.35-5,.61-5,.63-.06.56.56c-.07.62-.07,3.22.09,3.17.15-.05.79-5.19,1.04-5.09s.33.43.33.43c0,0-.61,5.36-.45,5.46s.3-.08.3-.08c0,0,0-3.52.2-3.51s.4.03.44.12-.27,4-.12,4.06c.14.07.4.03.4.03,0,0,0-4.05.12-4.08.13-.03.38-.21.43,0s-.15,3.32-.07,3.39.31.13.31.13c0,0-.03-4.05.12-4.03s.33-.15.4.03.09,2.72.2,2.75c.1.03.27-.18.36-.26.09-.07-.19-2.89.05-2.87s.21-.18.23.02.12,1.13.12,1.13c0,0,.24-.09.23-.67s.2-2.27.2-2.27l.2,1.71s-.06,1.9-.69,2.99-1.46,2.81-4.26,3.55-5.16-1.82-5.16-1.82c0,0-1.51-1.49-1.71-4.47,0,0,.07-1.91.38-2.33h-.01Z"/>
            </g>
            <path class="cls-4" d="M29.35,18.38s.36-.05.35.18-.28,2.3-.28,2.3c0,0,.23-.48.43-.4s.21,2.59.21,2.59c0,0,.39-2.75.57-2.61s.16,3.94.16,3.94h.1s.4-3.57.57-3.33.02,3.78.02,3.78c0,0,.13.18.22.15s.38-4.57.54-4.55.26-.08.35.09-.25,4.77-.1,4.74.52-4.31.71-4.29.56.07.73.29c.17.22.37.78.28,1.38-.09.6-.32,2.87-.13,2.89s.24-.29.34-.36.34-4.86.6-4.86.62-.05.55.55c-.06.6-.06,3.13.09,3.08s.77-5.05,1.01-4.95c.24.1.32.42.32.42,0,0-.6,5.22-.44,5.32s.3-.08.3-.08c0,0,0-3.43.2-3.41s.39.03.43.12-.26,3.89-.12,3.95c.14.06.39.03.39.03,0,0,0-3.94.12-3.97.13-.03.37-.2.42,0,.05.19-.14,3.23-.06,3.3.08.07.3.13.3.13,0,0-.03-3.94.11-3.92s.33-.14.39.03c.07.18.1,2.65.2,2.68.1.03.27-.18.35-.25.09-.07-.19-2.81.04-2.79s.2-.17.23.02.12,1.1.12,1.1c0,0,.24-.09.22-.65s.19-2.21.19-2.21l.2,1.66s-.05,1.85-.68,2.91-1.43,2.73-4.19,3.45-5.07-1.77-5.07-1.77c0,0-1.48-1.45-1.68-4.35,0,0,.06-1.86.37-2.27l.02-.06Z"/>
          </g>
          <g id="Colori_chiari">
            <path class="cls-20" d="M35.36,12.91c-3.46-.28-6.53,2.94-6.86,7s2.21,7.57,5.68,7.86,6.55-2.77,6.89-6.83-2.24-7.75-5.7-8.03h0ZM34.32,26.75c-7.38-.53-6.23-13.34,1.01-12.56s6.43,13.1-1.01,12.56Z"/>
            <path class="cls-10" d="M58.37,27.15l6.69,1.97s.71.23.98.08-.25-1.02-.25-1.02l-6.09-1.67s-1.64-.11-1.53.31.2.33.2.33Z"/>
            <path class="cls-22" d="M56.57,26.14l-2.17.16s-1.07.5-.54.73,2.67.55,2.67.55c0,0,.6-.64.03-1.44h.01Z"/>
            <polyline class="cls-8" points="42.9 23.18 42.79 24.51 45.09 24.7 43 23.19"/>
            <path class="cls-17" d="M67.01,25.6s-2.94.68-7.95.35l.07-.89s2.66-.03,7.88.54Z"/>
            <path class="cls-2" d="M41.65,20.61c3.28,3.8,9.76,4.4,9.76,4.4l-.1-.86c-7.06-1.88-9.59-4.36-9.59-4.36l-.07.83h0Z"/>
            <path class="cls-3" d="M51.9,24.5s-.03.99.14.87,6.51.01,6.51.01c0,0-.48-.37-1.36-.44l-5.28-.44h0Z"/>
            <path class="cls-1" d="M1.06,24.15s5.04.36,5.87.18,3.36-.56,3.58-.49.08,1.46.08,1.46c0,0-6.77-.36-9.23-.65,0,0-.67-.31-.29-.5h-.01Z"/>
            <path class="cls-23" d="M11.58,23.93s.83-.26,3.01-.05c0,0,2.15-.07,2.68,0s.05,1.12.05,1.12l-3.17-.43s-2.18.13-2.38-.25l-.19-.38h0Z"/>
            <path class="cls-11" d="M3.08,28.72s-.37-1.65.57-1.82,5.45-1.17,5.45-1.17c0,0,1.47-.27,2.33.19s-7.53,1.8-7.53,1.8c0,0-.64.31-.81.99h0Z"/>
            <path class="cls-21" d="M12.86,25.35s-.85.18-.66,1.95c0,0,.46.12.53-.37l1.59.02s.79.18.83-.6-.13-.82-.13-.82l-2.16-.18Z"/>
            <path class="cls-7" d="M18.04,25.05s-.2-1.63.51-1.74,4.06-.61,6.12-1.89,3.1-1.78,3.39-1.89-.04,1.97-.07,2.53c-.01.25-1.06-.09-1.05-.09,0,0,.74-.51.76-1.13s-2.52,1.55-2.52,1.55c0,0-5.15,1.96-6.21,1.96s-.92.7-.92.7h-.01Z"/>
            <path class="cls-24" d="M24.34,24.06s1.56-1,1.97-.92.4.57.4.57c0,0,.1.44-.04.54s-2.33-.19-2.33-.19Z"/>
            <path class="cls-19" d="M28.22,22.99l.38,2.08,1.12,1.45s-1.23-.68-2.34-.69-5.71.25-5.71.25c0,0,6,.24,6.53.54s1.72.15,2.13,1.18c0,0,2.23.01,2.22.82s-.05.58-.05.58c0,0-.49.15,1.55.25l.09-1.12s-2.33-.65-2.95-1.2-2.8-2.63-2.98-4.14h0Z"/>
            <path class="cls-15" d="M34.82,28.38l-.09,1.12,1.34-.07s.02-1.22.22-1.35,1.14-.67,1.46-.42.64.3.64.3c0,0,.64-.96,1.02-.89l-.06-.66s-.53.01-.63.17-1.15.8-1.15.8c0,0-2.74.81-2.76,1h.01Z"/>
          </g>
        </g>
        <g class="cls-12">
          <text class="cls-14" transform="translate(20.29 36.86)"><tspan x="0" y="0">il Garagino</tspan></text>
          <text class="cls-13" transform="translate(20.29 36.86)"><tspan x="0" y="0">il Garagino</tspan></text>
        </g>
      </g>
    </g>
  </g>
</svg>