<?xml version="1.0" encoding="UTF-8" standalone="no"?>
<svg
   id="Livello_2"
   viewBox="0 0 4828.9601 1984.7025"
   version="1.1"
   width="4828.96"
   height="1984.7025"
   xmlns="http://www.w3.org/2000/svg"
   xmlns:svg="http://www.w3.org/2000/svg">
  <defs
     id="defs6">
    <style
       id="style1">
      .cls-1 {
        fill: #8ea4a8;
      }

      .cls-2 {
        fill: #71838e;
      }

      .cls-3 {
        fill: #4c688d;
      }

      .cls-4 {
        fill: #001251;
      }

      .cls-5 {
        fill: #e2cf9c;
      }

      .cls-6 {
        fill: #021257;
      }

      .cls-7 {
        fill: #919a9c;
      }

      .cls-8 {
        fill: #738f99;
      }

      .cls-9 {
        fill: #7385b4;
      }

      .cls-10 {
        fill: #7c8f95;
      }

      .cls-11 {
        fill: #7a90a3;
      }

      .cls-12, .cls-13, .cls-14 {
        isolation: isolate;
      }

      .cls-15 {
        fill: #778f9d;
      }

      .cls-16 {
        fill: url(#Sfumatura_senza_nome);
      }

      .cls-17 {
        fill: #67809a;
      }

      .cls-18 {
        fill: #041657;
      }

      .cls-19 {
        fill: #728ea9;
      }

      .cls-13 {
        fill: none;
        stroke: #000;
        stroke-width: .1px;
      }

      .cls-13, .cls-14 {
        font-family: OogieBoogie, OogieBoogie;
        font-size: 6px;
      }

      .cls-20 {
        fill: #5d7a91;
      }

      .cls-21 {
        fill: #aeac9f;
      }

      .cls-14 {
        fill: #fff;
      }

      .cls-22 {
        fill: #bbad8f;
      }

      .cls-23 {
        fill: #648198;
      }

      .cls-24 {
        fill: #668098;
      }
    </style>
    <linearGradient
       id="Sfumatura_senza_nome"
       data-name="Sfumatura senza nome"
       x1="32.200001"
       y1="67.660004"
       x2="82.860001"
       y2="67.660004"
       gradientTransform="matrix(0.99887337,0.04745513,0.04745513,-0.99887337,-26.25,87.72)"
       gradientUnits="userSpaceOnUse">
      <stop
         offset="0"
         stop-color="#0d9664"
         id="stop1" />
      <stop
         offset=".11"
         stop-color="#3daa82"
         id="stop2" />
      <stop
         offset=".35"
         stop-color="#b5dfd0"
         id="stop3" />
      <stop
         offset=".5"
         stop-color="#fff"
         id="stop4" />
      <stop
         offset=".89"
         stop-color="#e93b46"
         id="stop5" />
      <stop
         offset="1"
         stop-color="#e30613"
         id="stop6" />
    </linearGradient>
  </defs>
  <g
     id="Livello_2-2"
     data-name="Livello_2"
     transform="matrix(41.15867,0,0,44.22029,190.03802,9.9937086)">
    <g
       id="Brand_Identity">
      <g
         id="Logo">
        <g
           id="Vespa">
          <path
             id="polygon6"
             style="fill:url(#Sfumatura_senza_nome)"
             class="cls-16"
             d="M 33.49,44.55 10.15,0 34.36,25.51 60.76,2.4 Z" />
          <g
             id="Colori_scuri">
            <path
               class="cls-6"
               d="m 69.49,24.72 -17.5,-1.44 c 0,0 -7.09,-1.5 -9.45,-3.76 0,0 -1.72,-3.85 -2.71,-5.02 -0.99,-1.17 -1.94,-1.54 -1.94,-1.54 0,0 -2.31,-1.69 -5.33,-0.37 0,0 -1.2,0.14 -2.69,1.95 -1.52,1.68 -1.86,3.64 -1.86,3.64 0,0 -1.21,1.71 -4.89,3.05 0,0 -2.8,1 -6.04,1.43 -3.24,0.43 -9.89,0.59 -9.89,0.59 l -6.48,0.13 c 0,0 -1.41,0.73 -0.26,1.7 l 3.03,0.48 -0.75,1 -0.47,1.17 -0.06,1.38 0.96,1 2.22,0.06 4.99,-1.24 2.13,-0.34 1.82,-0.66 3.59,-0.57 c 0,0 2.46,-0.72 4.03,-0.53 l 3.8,0.17 3.37,0.67 c 0,0 1.49,1.49 0.15,1.57 -1.34,0.08 -8.5,0.67 -8.5,0.67 l -2.03,0.67 1.3,0.8 c 0,0 0.86,-0.65 1.52,-0.57 l 2.61,-0.18 4.1,-0.39 4.41,-0.11 c 0,0 0.29,-0.15 3.47,0.14 3.18,0.29 6.67,0.55 6.67,0.55 l 3.38,0.28 c 0,0 1.36,0.06 3.74,1.23 l 1.94,0.13 c 0,0 -0.63,-1.14 -4.33,-1.89 -3.7,-0.75 -8.95,-1.02 -8.95,-1.02 0,0 0.33,-1.62 3.1,-2.06 2.77,-0.44 6.2,0.2 6.2,0.2 l 5.57,0.77 2.15,0.87 2.58,0.27 6.35,1.78 c 0,0 2.3,0.55 2.2,-2.74 0,0 0.16,-1.24 -1.09,-1.6 -1.25,-0.36 3.68,-0.7 3.68,-0.7 l 0.13,-1.63 h 0.03 z m -35.17,2.17 c -7.41,-0.64 -6.74,-13.27 0.89,-12.84 7.63,0.43 6.75,13.5 -0.89,12.84 z"
               id="path6" />
            <g
               id="g7">
              <path
                 class="cls-18"
                 d="m 36.12,13.96 -0.11,1.33 c 0,0 0.57,-0.76 0.74,-0.51 0.17,0.25 0.34,1.15 0.34,1.15 0,0 0.36,-1.42 0.67,-1.17"
                 id="path7" />
              <path
                 id="ellipse7"
                 class="cls-5"
                 transform="rotate(-85.29,34.787016,20.449626)"
                 style="fill:#e2cf9c"
                 d="m 41.200001,20.450001 a 6.4099998,5.7800002 0 0 1 -6.41,5.78 6.4099998,5.7800002 0 0 1 -6.41,-5.78 6.4099998,5.7800002 0 0 1 6.41,-5.78 6.4099998,5.7800002 0 0 1 6.41,5.78 z" />
            </g>
            <g
               id="Sfumatura">
              <path
                 class="cls-9"
                 d="m 29.43,18.69 c 0,0 0.36,-0.06 0.36,0.18 0,0.24 -0.29,2.36 -0.29,2.36 0,0 0.23,-0.5 0.44,-0.42 0.21,0.08 0.21,2.66 0.21,2.66 0,0 0.4,-2.82 0.58,-2.68 0.18,0.14 0.16,4.05 0.16,4.05 H 31 c 0,0 0.41,-3.67 0.58,-3.42 0.17,0.25 0.02,3.89 0.02,3.89 0,0 0.13,0.19 0.22,0.15 0.09,-0.04 0.39,-4.69 0.56,-4.68 0.17,0.01 0.26,-0.09 0.35,0.09 0.09,0.18 -0.25,4.9 -0.1,4.87 0.15,-0.03 0.53,-4.42 0.72,-4.41 0.19,0.01 0.57,0.07 0.74,0.3 0.17,0.23 0.38,0.8 0.29,1.42 -0.09,0.62 -0.33,2.95 -0.14,2.97 0.19,0.02 0.24,-0.3 0.34,-0.38 0.1,-0.08 0.35,-5 0.61,-5 0.26,0 0.63,-0.06 0.56,0.56 -0.07,0.62 -0.07,3.22 0.09,3.17 0.15,-0.05 0.79,-5.19 1.04,-5.09 0.25,0.1 0.33,0.43 0.33,0.43 0,0 -0.61,5.36 -0.45,5.46 0.16,0.1 0.3,-0.08 0.3,-0.08 0,0 0,-3.52 0.2,-3.51 0.2,0.01 0.4,0.03 0.44,0.12 0.04,0.09 -0.27,4 -0.12,4.06 0.14,0.07 0.4,0.03 0.4,0.03 0,0 0,-4.05 0.12,-4.08 0.13,-0.03 0.38,-0.21 0.43,0 0.05,0.21 -0.15,3.32 -0.07,3.39 0.08,0.07 0.31,0.13 0.31,0.13 0,0 -0.03,-4.05 0.12,-4.03 0.15,0.02 0.33,-0.15 0.4,0.03 0.07,0.18 0.09,2.72 0.2,2.75 0.1,0.03 0.27,-0.18 0.36,-0.26 0.09,-0.07 -0.19,-2.89 0.05,-2.87 0.24,0.02 0.21,-0.18 0.23,0.02 0.02,0.2 0.12,1.13 0.12,1.13 0,0 0.24,-0.09 0.23,-0.67 -0.01,-0.58 0.2,-2.27 0.2,-2.27 l 0.2,1.71 c 0,0 -0.06,1.9 -0.69,2.99 -0.63,1.09 -1.46,2.81 -4.26,3.55 -2.8,0.74 -5.16,-1.82 -5.16,-1.82 0,0 -1.51,-1.49 -1.71,-4.47 0,0 0.07,-1.91 0.38,-2.33 z"
                 id="path8" />
            </g>
            <path
               class="cls-4"
               d="m 29.35,18.38 c 0,0 0.36,-0.05 0.35,0.18 -0.01,0.23 -0.28,2.3 -0.28,2.3 0,0 0.23,-0.48 0.43,-0.4 0.2,0.08 0.21,2.59 0.21,2.59 0,0 0.39,-2.75 0.57,-2.61 0.18,0.14 0.16,3.94 0.16,3.94 h 0.1 c 0,0 0.4,-3.57 0.57,-3.33 0.17,0.24 0.02,3.78 0.02,3.78 0,0 0.13,0.18 0.22,0.15 0.09,-0.03 0.38,-4.57 0.54,-4.55 0.16,0.02 0.26,-0.08 0.35,0.09 0.09,0.17 -0.25,4.77 -0.1,4.74 0.15,-0.03 0.52,-4.31 0.71,-4.29 0.19,0.02 0.56,0.07 0.73,0.29 0.17,0.22 0.37,0.78 0.28,1.38 -0.09,0.6 -0.32,2.87 -0.13,2.89 0.19,0.02 0.24,-0.29 0.34,-0.36 0.1,-0.07 0.34,-4.86 0.6,-4.86 0.26,0 0.62,-0.05 0.55,0.55 -0.06,0.6 -0.06,3.13 0.09,3.08 0.15,-0.05 0.77,-5.05 1.01,-4.95 0.24,0.1 0.32,0.42 0.32,0.42 0,0 -0.6,5.22 -0.44,5.32 0.16,0.1 0.3,-0.08 0.3,-0.08 0,0 0,-3.43 0.2,-3.41 0.2,0.02 0.39,0.03 0.43,0.12 0.04,0.09 -0.26,3.89 -0.12,3.95 0.14,0.06 0.39,0.03 0.39,0.03 0,0 0,-3.94 0.12,-3.97 0.13,-0.03 0.37,-0.2 0.42,0 0.05,0.19 -0.14,3.23 -0.06,3.3 0.08,0.07 0.3,0.13 0.3,0.13 0,0 -0.03,-3.94 0.11,-3.92 0.14,0.02 0.33,-0.14 0.39,0.03 0.07,0.18 0.1,2.65 0.2,2.68 0.1,0.03 0.27,-0.18 0.35,-0.25 0.09,-0.07 -0.19,-2.81 0.04,-2.79 0.23,0.02 0.2,-0.17 0.23,0.02 0.03,0.19 0.12,1.1 0.12,1.1 0,0 0.24,-0.09 0.22,-0.65 -0.02,-0.56 0.19,-2.21 0.19,-2.21 l 0.2,1.66 c 0,0 -0.05,1.85 -0.68,2.91 -0.63,1.06 -1.43,2.73 -4.19,3.45 -2.76,0.72 -5.07,-1.77 -5.07,-1.77 0,0 -1.48,-1.45 -1.68,-4.35 0,0 0.06,-1.86 0.37,-2.27 z"
               id="path9" />
          </g>
          <g
             id="Colori_chiari">
            <path
               class="cls-20"
               d="m 35.36,12.91 c -3.46,-0.28 -6.53,2.94 -6.86,7 -0.33,4.06 2.21,7.57 5.68,7.86 3.47,0.29 6.55,-2.77 6.89,-6.83 0.34,-4.06 -2.24,-7.75 -5.7,-8.03 v 0 z m -1.04,13.84 c -7.38,-0.53 -6.23,-13.34 1.01,-12.56 7.24,0.78 6.43,13.1 -1.01,12.56 z"
               id="path10" />
            <path
               class="cls-10"
               d="m 58.37,27.15 6.69,1.97 c 0,0 0.71,0.23 0.98,0.08 0.27,-0.15 -0.25,-1.02 -0.25,-1.02 L 59.7,26.51 c 0,0 -1.64,-0.11 -1.53,0.31 0.11,0.42 0.2,0.33 0.2,0.33 z"
               id="path11" />
            <path
               class="cls-22"
               d="M 56.57,26.14 54.4,26.3 c 0,0 -1.07,0.5 -0.54,0.73 0.53,0.23 2.67,0.55 2.67,0.55 0,0 0.6,-0.64 0.03,-1.44 z"
               id="path12" />
            <path
               id="polyline12"
               class="cls-8"
               style="fill:#738f99"
               d="m 42.9,23.18 -0.11,1.33 2.3,0.19 L 43,23.19" />
            <path
               class="cls-17"
               d="m 67.01,25.6 c 0,0 -2.94,0.68 -7.95,0.35 l 0.07,-0.89 c 0,0 2.66,-0.03 7.88,0.54 z"
               id="path13" />
            <path
               class="cls-2"
               d="m 41.65,20.61 c 3.28,3.8 9.76,4.4 9.76,4.4 l -0.1,-0.86 c -7.06,-1.88 -9.59,-4.36 -9.59,-4.36 l -0.07,0.83 v 0 z"
               id="path14" />
            <path
               class="cls-3"
               d="m 51.9,24.5 c 0,0 -0.03,0.99 0.14,0.87 0.17,-0.12 6.51,0.01 6.51,0.01 0,0 -0.48,-0.37 -1.36,-0.44 L 51.91,24.5 v 0 z"
               id="path15" />
            <path
               class="cls-1"
               d="m 1.06,24.15 c 0,0 5.04,0.36 5.87,0.18 0.83,-0.18 3.36,-0.56 3.58,-0.49 0.22,0.07 0.08,1.46 0.08,1.46 0,0 -6.77,-0.36 -9.23,-0.65 0,0 -0.67,-0.31 -0.29,-0.5 z"
               id="path16" />
            <path
               class="cls-23"
               d="m 11.58,23.93 c 0,0 0.83,-0.26 3.01,-0.05 0,0 2.15,-0.07 2.68,0 0.53,0.07 0.05,1.12 0.05,1.12 l -3.17,-0.43 c 0,0 -2.18,0.13 -2.38,-0.25 l -0.19,-0.38 v 0 z"
               id="path17" />
            <path
               class="cls-11"
               d="m 3.08,28.72 c 0,0 -0.37,-1.65 0.57,-1.82 0.94,-0.17 5.45,-1.17 5.45,-1.17 0,0 1.47,-0.27 2.33,0.19 0.86,0.46 -7.53,1.8 -7.53,1.8 0,0 -0.64,0.31 -0.81,0.99 v 0 z"
               id="path18" />
            <path
               class="cls-21"
               d="m 12.86,25.35 c 0,0 -0.85,0.18 -0.66,1.95 0,0 0.46,0.12 0.53,-0.37 l 1.59,0.02 c 0,0 0.79,0.18 0.83,-0.6 0.04,-0.78 -0.13,-0.82 -0.13,-0.82 z"
               id="path19" />
            <path
               class="cls-7"
               d="m 18.04,25.05 c 0,0 -0.2,-1.63 0.51,-1.74 0.71,-0.11 4.06,-0.61 6.12,-1.89 2.06,-1.28 3.1,-1.78 3.39,-1.89 0.29,-0.11 -0.04,1.97 -0.07,2.53 -0.01,0.25 -1.06,-0.09 -1.05,-0.09 0,0 0.74,-0.51 0.76,-1.13 0.02,-0.62 -2.52,1.55 -2.52,1.55 0,0 -5.15,1.96 -6.21,1.96 -1.06,0 -0.92,0.7 -0.92,0.7 z"
               id="path20" />
            <path
               class="cls-24"
               d="m 24.34,24.06 c 0,0 1.56,-1 1.97,-0.92 0.41,0.08 0.4,0.57 0.4,0.57 0,0 0.1,0.44 -0.04,0.54 -0.14,0.1 -2.33,-0.19 -2.33,-0.19 z"
               id="path21" />
            <path
               class="cls-19"
               d="m 28.22,22.99 0.38,2.08 1.12,1.45 c 0,0 -1.23,-0.68 -2.34,-0.69 -1.11,-0.01 -5.71,0.25 -5.71,0.25 0,0 6,0.24 6.53,0.54 0.53,0.3 1.72,0.15 2.13,1.18 0,0 2.23,0.01 2.22,0.82 -0.01,0.81 -0.05,0.58 -0.05,0.58 0,0 -0.49,0.15 1.55,0.25 l 0.09,-1.12 c 0,0 -2.33,-0.65 -2.95,-1.2 -0.62,-0.55 -2.8,-2.63 -2.98,-4.14 v 0 z"
               id="path22" />
            <path
               class="cls-15"
               d="m 34.82,28.38 -0.09,1.12 1.34,-0.07 c 0,0 0.02,-1.22 0.22,-1.35 0.2,-0.13 1.14,-0.67 1.46,-0.42 0.32,0.25 0.64,0.3 0.64,0.3 0,0 0.64,-0.96 1.02,-0.89 l -0.06,-0.66 c 0,0 -0.53,0.01 -0.63,0.17 -0.1,0.16 -1.15,0.8 -1.15,0.8 0,0 -2.74,0.81 -2.76,1 z"
               id="path23" />
          </g>
        </g>
        <g
           class="cls-12"
           id="g24">
          <path
             d="M 0.258,-2.94 0.924,0 h 0.66 l 0.498,-3.15 z m 0.9,-0.228 q 0.366,0 0.618,-0.252 0.258,-0.258 0.258,-0.624 0,-0.36 -0.258,-0.618 -0.252,-0.258 -0.618,-0.258 -0.36,0 -0.618,0.258 -0.258,0.258 -0.258,0.618 0,0.366 0.258,0.624 0.258,0.252 0.618,0.252 z m 1.6199995,-2.4 -0.036,5.598 h 0.786 q 0.156,-1.332 0.714,-5.802 -1.14,0.126 -1.464,0.204 z m 8.0880035,3.756 -2.4000004,-0.06 0.114,0.738 0.666,0.066 -0.006,0.246 -0.03,-0.108 q -0.156,0.066 -0.324,0.06 -0.336,-0.006 -0.57,-0.24 -0.234,-0.24 -0.234,-0.57 0.006,-0.33 0.246,-0.558 0.246,-0.234 0.582,-0.228 0.222,0 0.408,0.114 l 1.3320004,-1.284 q -0.648,-0.834 -1.7100004,-0.852 -0.906,-0.012 -1.56,0.612 -0.648,0.618 -0.666,1.512 -0.012,0.894 0.618,1.536 0.636,0.642 1.542,0.654 0.168,0.006 0.348,-0.018 l -0.006,0.18 0.8400004,0.102 -0.018,-1.074 0.534,0.054 z m 0.977998,-1.59 q -0.324,0 -0.606,0.144 l 0.348,1.182 q 0.12,-0.066 0.258,-0.066 0.198,0 0.342,0.138 0.144,0.132 0.156,0.324 -0.174,-0.072 -0.366,-0.072 -0.264,0 -0.492,0.132 -0.486,0.288 -0.486,0.84 0,0.258 0.132,0.48 0.27,0.468 0.822,0.468 0.378,0 0.66,-0.252 l 0.042,0.24 0.432,-0.042 0.12,-2.172 q 0.03,-0.546 -0.384,-0.942 -0.408,-0.402 -0.978,-0.402 z m 0.45,3.012 q -0.084,0.048 -0.186,0.048 -0.204,0 -0.306,-0.168 -0.048,-0.084 -0.048,-0.18 0,-0.204 0.18,-0.312 0.084,-0.048 0.186,-0.048 0.204,0 0.306,0.174 0.048,0.078 0.048,0.174 0,0.21 -0.18,0.312 z m 4.470001,-1.32 q 0.042,-0.738 -0.336,-1.218 -0.396,-0.504 -1.098,-0.504 -0.198,0 -0.39,0.042 l -0.006,-0.246 -1.458,0.012 0.618,3.75 0.894,-0.24 -0.024,-1.65 0.036,0.036 q 0.15,-0.09 0.33,-0.09 0.306,0 0.33,0.366 l 1.104,-0.234 q 0,-0.006 0,-0.024 z m 0.6,-1.692 q -0.324,0 -0.606,0.144 l 0.348,1.182 q 0.12,-0.066 0.258,-0.066 0.198,0 0.342,0.138 0.144,0.132 0.156,0.324 -0.174,-0.072 -0.366,-0.072 -0.264,0 -0.492,0.132 -0.486,0.288 -0.486,0.84 0,0.258 0.132,0.48 0.27,0.468 0.822,0.468 0.378,0 0.66,-0.252 l 0.042,0.24 0.432,-0.042 0.12,-2.172 q 0.03,-0.546 -0.384,-0.942 -0.408,-0.402 -0.978,-0.402 z m 0.45,3.012 q -0.084,0.048 -0.186,0.048 -0.204,0 -0.306,-0.168 -0.048,-0.084 -0.048,-0.18 0,-0.204 0.18,-0.312 0.084,-0.048 0.186,-0.048 0.204,0 0.306,0.174 0.048,0.078 0.048,0.174 0,0.21 -0.18,0.312 z m 4.104,-1.23 q 0,-0.582 -0.408,-1.074 l 0.63,-0.846 -1.47,-0.558 0.144,1.086 q -0.174,-0.048 -0.36,-0.048 -0.6,0 -1.032,0.426 -0.426,0.42 -0.426,1.014 0,0.498 0.306,0.888 0.312,0.384 0.792,0.504 l -0.24,0.906 q 0.108,-0.042 0.498,-0.042 0.222,0 0.378,0.156 0.162,0.156 0.162,0.378 0,0.216 -0.162,0.372 -0.156,0.156 -0.378,0.156 -0.15,0 -0.276,-0.072 l -0.87,0.87 q 0.438,0.546 1.146,0.546 0.6,0 1.026,-0.42 0.432,-0.42 0.432,-1.014 0,-0.528 -0.348,-0.93 -0.348,-0.402 -0.864,-0.486 l 0.042,-0.39 q 0.54,-0.066 0.906,-0.468 0.372,-0.408 0.372,-0.954 z m -1.464,0.816 q -0.222,0 -0.384,-0.156 -0.156,-0.156 -0.156,-0.378 0,-0.216 0.156,-0.372 0.162,-0.156 0.384,-0.156 0.228,0 0.384,0.156 0.162,0.156 0.162,0.372 0,0.222 -0.162,0.378 -0.156,0.156 -0.384,0.156 z m 1.931996,-2.136 0.666,2.94 h 0.66 l 0.498,-3.15 z m 0.9,-0.228 q 0.366,0 0.618,-0.252 0.258,-0.258 0.258,-0.624 0,-0.36 -0.258,-0.618 -0.252,-0.258 -0.618,-0.258 -0.36,0 -0.618,0.258 -0.258,0.258 -0.258,0.618 0,0.366 0.258,0.624 0.258,0.252 0.618,0.252 z m 2.736,-0.264 q -0.192,0 -0.39,0.042 v -0.246 l -1.464,0.012 0.624,3.6 0.894,-0.09 -0.024,-1.65 0.03,0.036 q 0.156,-0.09 0.33,-0.09 0.24,0 0.306,0.186 0.042,0.12 0.024,0.456 l -0.048,1.08 h 0.804 q 0.288,-0.852 0.348,-1.614 0.042,-0.738 -0.336,-1.218 -0.39,-0.504 -1.098,-0.504 z m 3.215994,0.096 q -0.75,0 -1.278,0.522 -0.528,0.516 -0.528,1.248 0,0.738 0.528,1.26 0.528,0.516 1.278,0.516 0.744,0 1.272,-0.516 0.528,-0.522 0.528,-1.26 0,-0.732 -0.528,-1.248 -0.528,-0.522 -1.272,-0.522 z m 0,2.898 q -0.282,0 -0.48,-0.192 -0.192,-0.192 -0.192,-0.468 0,-0.27 0.192,-0.462 0.198,-0.198 0.48,-0.198 0.276,0 0.468,0.198 0.198,0.192 0.198,0.462 0,0.276 -0.198,0.468 -0.192,0.192 -0.468,0.192 z"
             id="text23"
             class="cls-14"
             style="font-size:6px;font-family:OogieBoogie, OogieBoogie;fill:#ffffff"
             transform="translate(20.29,36.86)"
             aria-label="il Garagino" />
          <path
             style="font-size:6px;font-family:OogieBoogie, OogieBoogie;baseline-shift:baseline;display:inline;overflow:visible;vector-effect:none;enable-background:accumulate;stop-color:#000000;stop-opacity:1;opacity:1"
             d="m 4.2988281,-5.828125 -0.0625,0.00586 c -0.7606056,0.084067 -1.2476859,0.1513888 -1.4707031,0.2050781 l -0.037109,0.00977 -0.037109,5.68750002 H 3.5722656 L 3.578125,0.03515625 C 3.6820755,-0.85242097 3.9190203,-2.7856624 4.2910156,-5.765625 Z M 4.1855469,-5.7148437 C 3.8231471,-2.811168 3.5884826,-0.9070196 3.484375,-0.01953125 H 2.7929688 L 2.828125,-5.5253906 c 0.2084295,-0.047725 0.6723548,-0.1125787 1.3574219,-0.1894531 z m -3.0273438,0.7441406 c -0.25194442,0 -0.47407468,0.093215 -0.65429685,0.2734375 -0.18022217,0.1802221 -0.27148437,0.4003993 -0.27148437,0.6523437 -10e-9,0.2557487 0.0911252,0.4797971 0.27148437,0.6601563 h 0.001953 c 0.18031603,0.1761226 0.40067709,0.2675781 0.65234373,0.2675781 0.2554754,0 0.4757855,-0.09102 0.6523438,-0.2675781 0.1803592,-0.1803592 0.2734375,-0.4044076 0.2734375,-0.6601563 0,-0.2519444 -0.093215,-0.4721216 -0.2734375,-0.6523437 C 1.634312,-4.877015 1.4133018,-4.9707031 1.1582031,-4.9707031 Z m 22.1269529,0 c -0.251944,0 -0.472121,0.093215 -0.652344,0.2734375 -0.180222,0.1802221 -0.273437,0.4003993 -0.273437,0.6523437 0,0.2557487 0.09308,0.4797971 0.273437,0.6601563 0.180317,0.1761226 0.400678,0.2675781 0.652344,0.2675781 0.255476,0 0.477739,-0.09102 0.654297,-0.2675781 0.180359,-0.1803592 0.273438,-0.4044076 0.273438,-0.6601563 0,-0.2519444 -0.09322,-0.4721216 -0.273438,-0.6523437 -0.176455,-0.180656 -0.398548,-0.2734375 -0.654297,-0.2734375 z M 1.1582031,-4.8691406 c 0.2322514,0 0.4224859,0.078843 0.5820313,0.2421875 0.1637778,0.1637778 0.2441406,0.3539757 0.2441406,0.5820312 0,0.2322514 -0.0805,0.426203 -0.2441406,0.5898438 -0.1594418,0.1594417 -0.3495067,0.2363281 -0.5820313,0.2363281 -0.22767711,0 -0.41866076,-0.07738 -0.58203123,-0.2363281 -0.16364079,-0.1636408 -0.24414062,-0.3575924 -0.24414062,-0.5898438 0,-0.2280555 0.0803628,-0.4182534 0.24414062,-0.5820312 0.16377783,-0.1637779 0.3539757,-0.2421875 0.58203123,-0.2421875 z m 22.1269529,0 c 0.232252,0 0.424439,0.078843 0.583985,0.2421875 0.163777,0.1637778 0.242187,0.3539757 0.242187,0.5820312 0,0.2322514 -0.07855,0.426203 -0.242187,0.5898438 -0.159442,0.1594417 -0.35146,0.2363281 -0.583985,0.2363281 -0.228333,0 -0.418347,-0.076451 -0.582031,-0.2363281 -0.163641,-0.1636408 -0.242187,-0.3575924 -0.242188,-0.5898438 0,-0.2280555 0.07841,-0.4182534 0.242188,-0.5820312 0.163778,-0.1637779 0.353976,-0.2421875 0.582031,-0.2421875 z M 8.9414063,-4.5371094 c -0.6156354,-0.00815 -1.1512442,0.200929 -1.5957032,0.625 -0.4405466,0.420151 -0.6694022,0.9390337 -0.6816406,1.546875 -0.00816,0.6079024 0.204575,1.1358713 0.6328125,1.57226565 0.4322446,0.43632241 0.9605198,0.66176754 1.5761719,0.66992188 V -0.125 c 0.09607,0.003431 0.1955314,-0.004775 0.296875,-0.015625 l -0.00586,0.171875 0.9433595,0.11523437 -0.01953,-1.07421875 0.519531,0.0507813 0.328125,-0.98242187 -2.5273439,-0.064453 0.1289063,0.8359375 0.6582031,0.064453 -0.00195,0.0449219 -0.00195,0.001953 c -0.097568,0.0412786 -0.1978212,0.0603875 -0.3027344,0.0566406 h -0.00195 c -0.2126056,-0.003797 -0.3874663,-0.0769194 -0.5351563,-0.22460932 -0.1480035,-0.1517985 -0.21875,-0.3269745 -0.21875,-0.5351563 0.00378,-0.2080941 0.079051,-0.3776374 0.2304688,-0.5214844 0.1556086,-0.148018 0.3327412,-0.2186327 0.5449218,-0.2148437 h 0.00195 c 0.1394414,0 0.2644158,0.036053 0.3808593,0.1074218 l 0.033203,0.019531 1.3925782,-1.3417969 -0.02734,-0.035156 C 10.24944,-4.2323282 9.6623171,-4.5248906 8.9414063,-4.5371094 Z m -0.00195,0.099609 c 0.6772086,0.011478 1.2093849,0.2924504 1.6289059,0.8105469 L 9.3007813,-2.40625 c -0.1210845,-0.065535 -0.249555,-0.109375 -0.390625,-0.109375 -0.2358194,-0.00421 -0.4447962,0.078206 -0.6171875,0.2421875 -0.1685822,0.1601531 -0.2575023,0.3598909 -0.2617188,0.5917969 v 0.00195 c 0,0.2318182 0.08405,0.4372672 0.2480469,0.6054688 h 0.00195 c 0.16431,0.16430997 0.3681212,0.24970273 0.6035156,0.2539062 0.1001718,0.003578 0.1947922,-0.0221486 0.2890625,-0.0546875 l 0.017578,0.0664063 0.097656,-0.0117188 v -0.015625 l 0.00781,-0.2773437 -0.6738281,-0.066406 -0.097656,-0.640625 2.2714844,0.056641 L 10.537109,-0.984375 9.9863281,-1.0390625 10.003906,0.03320312 9.2675781,-0.05664062 9.2734375,-0.25 9.2148438,-0.2421875 C 9.0974048,-0.22652897 8.9839871,-0.22071698 8.875,-0.22460938 8.2826521,-0.23245504 7.7829429,-0.44360366 7.3671875,-0.86328125 6.955425,-1.2828869 6.7558316,-1.7791837 6.7636719,-2.3632813 6.7754335,-2.9474399 6.9906091,-3.4359947 7.4140625,-3.8398438 7.8416035,-4.2477728 8.3470884,-4.4453459 8.9394531,-4.4375 Z m 11.6699219,0.2636719 0.146484,1.1035156 c -0.09848,-0.021635 -0.199173,-0.039063 -0.302734,-0.039063 -0.411833,0 -0.770166,0.1473272 -1.066406,0.4394531 -0.292392,0.2882736 -0.441407,0.6428284 -0.441407,1.0507813 10e-7,0.3422409 0.106027,0.64983741 0.316407,0.91796873 h 0.002 c 0.202462,0.24918455 0.467718,0.40468226 0.773437,0.49218749 l -0.255859,0.96875 0.0918,-0.0351563 c 0.05305,-0.0206312 0.22031,-0.0390625 0.478515,-0.0390625 0.136289,0 0.248136,0.0469637 0.34375,0.14257813 0.09946,0.09578 0.146485,0.205959 0.146485,0.3417969 0,0.1315 -0.04679,0.2399353 -0.146485,0.3359375 -0.09561,0.095614 -0.207461,0.1425781 -0.34375,0.1425781 -0.092,0 -0.17342,-0.022647 -0.25,-0.066406 l -0.0332,-0.017578 -0.929687,0.9277344 0.0293,0.035156 c 0.300228,0.3742571 0.69874,0.5644531 1.183593,0.5644531 0.411018,0 0.768447,-0.1462556 1.060547,-0.4335938 0.296447,-0.2882123 0.447266,-0.64266 0.447266,-1.0507812 C 21.859375,1.244437 21.73909,0.92072119 21.5,0.64453125 21.273538,0.38292817 20.983243,0.23365899 20.652344,0.16796875 l 0.03516,-0.33789062 c 0.34977,-0.0531758 0.654253,-0.19897837 0.894531,-0.46289063 0.255482,-0.28020577 0.386719,-0.6109728 0.386719,-0.9863281 0,-0.3842558 -0.147015,-0.7393328 -0.404297,-1.0644532 L 22.21875,-3.5625 Z m 0.121094,0.1523437 1.330078,0.5039063 -0.613281,0.8261718 0.02344,0.029297 c 0.265816,0.320543 0.396485,0.6666526 0.396484,1.0429688 0,0.3526447 -0.116903,0.65612762 -0.357421,0.91992185 -0.236676,0.25995562 -0.525785,0.40848994 -0.875,0.45117187 l -0.04102,0.005859 -0.05078,0.4765625 0.04687,0.007813 c 0.333274,0.054254 0.60886,0.20869283 0.833984,0.46875 0.22491,0.25981006 0.335938,0.5554692 0.335938,0.8964844 0,0.3838788 -0.136463,0.7067279 -0.416016,0.9785156 -0.275643,0.2717605 -0.603854,0.40625 -0.992188,0.40625 -0.441167,0 -0.785728,-0.1795193 -1.064453,-0.5058594 l 0.804688,-0.8046875 c 0.08118,0.038933 0.166586,0.066406 0.259765,0.066406 0.159712,0 0.301677,-0.057536 0.414063,-0.1699219 0.116305,-0.1119979 0.175781,-0.2517031 0.175781,-0.4082031 0,-0.1601622 -0.05925,-0.3018425 -0.175781,-0.41406253 C 20.653239,0.64347381 20.511274,0.5859375 20.351562,0.5859375 c -0.219132,0 -0.335175,0.0140765 -0.43164,0.0371094 l 0.236328,-0.88671875 -0.05078,-0.0136719 c -0.309735,-0.0774336 -0.562157,-0.23885626 -0.763672,-0.48632812 -0.19762,-0.25186873 -0.294922,-0.53370973 -0.294922,-0.85546873 0,-0.3840472 0.134548,-0.7067893 0.410156,-0.9785157 0.27976,-0.2758741 0.607927,-0.4121093 0.996094,-0.4121093 0.119699,0 0.236059,0.01609 0.347656,0.046875 l 0.07227,0.019531 z m -5.748047,0.3359375 -1.564453,0.011719 0.634765,3.86328122 0.986329,-0.26562499 -0.02344,-1.60351563 0.0098,-0.00586 c 0.09243,-0.05546 0.19302,-0.082031 0.304687,-0.082031 0.09203,0 0.154513,0.024635 0.199219,0.074219 0.04471,0.049583 0.07253,0.1290632 0.08008,0.2441407 l 0.0039,0.058594 1.201172,-0.2539062 v -0.0625 c 0.02852,-0.5011093 -0.08739,-0.9214606 -0.347656,-1.2519532 -0.272868,-0.3472862 -0.656753,-0.5234375 -1.136719,-0.5234375 -0.115716,0 -0.228992,0.016139 -0.341797,0.037109 z m 10.699219,0 -1.572266,0.011719 0.08203,0.4765625 -1.867187,0.2148437 0.6875,3.03320315 h 0.742187 L 24.232422,-2.9667969 24.75,0.03125 l 0.986328,-0.09960937 -0.02148,-1.61523433 0.002,-0.00195 c 0.09703,-0.055979 0.197308,-0.082031 0.304687,-0.082031 0.07354,0 0.130791,0.01409 0.171875,0.039063 0.04108,0.024973 0.06908,0.060282 0.08789,0.1132812 0.02246,0.064164 0.03336,0.2158919 0.02148,0.4375 l -0.05078,1.1308594 h 0.892578 l 0.01172,-0.03320312 c 0.159013,-0.47041281 0.231596,-0.90910062 0.287109,-1.33984378 0.03645,0.43327643 0.162672,0.83427426 0.482422,1.15039065 0.360464,0.35227117 0.801034,0.52929687 1.3125,0.52929688 0.507559,0 0.946245,-0.17709188 1.306641,-0.52929688 0.360378,-0.35628257 0.542969,-0.79295085 0.542969,-1.29687495 0,-0.5000219 -0.182517,-0.9309428 -0.542969,-1.2832032 -0.36035,-0.356255 -0.798947,-0.5371094 -1.306641,-0.5371094 -0.5116,0 -0.952082,0.1807878 -1.3125,0.5371094 -0.295234,0.2885247 -0.391318,0.6618324 -0.445312,1.0507813 0.0069,-0.4533187 -0.07914,-0.8538993 -0.320313,-1.1601563 -0.268962,-0.3475816 -0.654807,-0.5234375 -1.138672,-0.5234375 -0.11176,0 -0.225494,0.016424 -0.339843,0.037109 z m -10.796875,0.099609 0.0059,0.2578125 0.06055,-0.013672 c 0.124495,-0.027233 0.250441,-0.041016 0.378906,-0.041016 0.456034,0 0.803462,0.1616144 1.058594,0.4863281 0.240914,0.305923 0.346302,0.6947072 0.322265,1.1699219 l -1.019531,0.21875 c -0.01431,-0.099274 -0.03385,-0.1920204 -0.08789,-0.2519531 -0.06529,-0.072417 -0.161471,-0.1074219 -0.273438,-0.1074219 -0.113464,0 -0.216883,0.033476 -0.314453,0.083984 l -0.103516,-0.1035156 0.02539,1.73437495 -0.804687,0.21679687 -0.597657,-3.63867192 z m 10.697265,0 v 0.2578125 l 0.06055,-0.013672 c 0.128791,-0.027319 0.254552,-0.041016 0.378906,-0.041016 0.460136,0 0.807556,0.1619097 1.058594,0.4863281 0.243737,0.3095074 0.353654,0.700703 0.326172,1.1835938 -0.03888,0.4916492 -0.154669,1.0160655 -0.337891,1.56640623 h -0.71289 l 0.04687,-1.02734373 c 0.01213,-0.2263919 0.0062,-0.3787733 -0.02734,-0.4746094 -0.02519,-0.071 -0.06994,-0.1289883 -0.130859,-0.1660156 -0.06092,-0.037027 -0.136198,-0.052734 -0.222657,-0.052734 -0.109465,0 -0.211313,0.034464 -0.310547,0.083984 l -0.101562,-0.1210938 0.02539,1.74609378 -0.800782,0.08007812 -0.607422,-3.4960938 z M 11.84375,-3.4511719 c -0.223407,0 -0.433999,0.04891 -0.628906,0.1484375 l -0.03711,0.019531 0.376954,1.28125 0.05469,-0.029297 c 0.07291,-0.0401 0.150346,-0.060547 0.234375,-0.060547 0.120384,0 0.220859,0.038968 0.308594,0.1230469 v 0.00195 c 0.0669,0.061322 0.08804,0.1396802 0.107422,0.2207032 -0.09242,-0.027392 -0.184352,-0.056641 -0.283203,-0.056641 -0.184334,0 -0.358337,0.046479 -0.517579,0.1386719 v 0.00195 c -0.336052,0.1991424 -0.511718,0.5001386 -0.511718,0.88281253 0,0.18052713 0.04828,0.34859269 0.140625,0.50390624 0.18742,0.32369057 0.481801,0.49414063 0.863281,0.49414063 0.235731,0 0.438303,-0.0972184 0.621094,-0.23828125 l 0.04101,0.23046875 0.519532,-0.0507813 0.123046,-2.21484375 C 13.276587,-2.431929 13.142153,-2.762805 12.857422,-3.0351563 12.57713,-3.3113264 12.235504,-3.4511719 11.84375,-3.4511719 Z m 5.519531,0 c -0.223407,0 -0.433999,0.04891 -0.628906,0.1484375 l -0.03516,0.019531 0.376953,1.28125 0.05469,-0.029297 c 0.07291,-0.0401 0.148393,-0.060547 0.232422,-0.060547 0.120384,0 0.220859,0.038968 0.308594,0.1230469 v 0.00195 c 0.0669,0.061322 0.08804,0.1396802 0.107422,0.2207032 -0.09242,-0.027392 -0.184352,-0.056641 -0.283203,-0.056641 -0.184334,0 -0.358337,0.046479 -0.517578,0.1386719 v 0.00195 c -0.336053,0.1991424 -0.509766,0.5001386 -0.509766,0.88281253 0,0.18052713 0.04632,0.34859269 0.138672,0.50390624 0.18737,0.32477541 0.483104,0.49414063 0.865234,0.49414063 0.235085,0 0.43669,-0.0979845 0.619141,-0.23828125 l 0.04102,0.23046875 0.521485,-0.0507813 0.121094,-2.21484375 c 0.02073,-0.3772415 -0.113707,-0.7081175 -0.398438,-0.9804688 -0.280292,-0.2761701 -0.621917,-0.4160156 -1.013672,-0.4160156 z m -5.519531,0.099609 c 0.368246,0 0.679651,0.1268889 0.943359,0.3867187 0.26727,0.2556488 0.388413,0.5535385 0.369141,0.9042969 l -0.117187,2.12890627 -0.34375,0.03320313 -0.04883,-0.28320312 -0.06836,0.0605469 c -0.179723,0.16060378 -0.386064,0.23828125 -0.626953,0.23828125 -0.35387,0 -0.604714,-0.14218166 -0.777344,-0.44140625 v -0.001953 c -0.08365,-0.14068644 -0.125,-0.28965213 -0.125,-0.45312499 0,-0.35332613 0.14899,-0.61201743 0.460938,-0.79687503 0.144758,-0.083807 0.29913,-0.125 0.466797,-0.125 0.121749,0 0.235706,0.020891 0.345703,0.066406 l 0.07422,0.03125 -0.0039,-0.080078 c -0.0087,-0.1397152 -0.06748,-0.2617297 -0.171875,-0.3574219 -0.104265,-0.099921 -0.233337,-0.1503907 -0.376953,-0.1503907 -0.0791,1e-7 -0.151231,0.026568 -0.222656,0.056641 l -0.322266,-1.0878907 c 0.170518,-0.080462 0.350321,-0.1289062 0.544922,-0.1289062 z m 5.519531,0 c 0.368246,0 0.679652,0.1268889 0.94336,0.3867187 0.267269,0.2556488 0.388413,0.5535385 0.36914,0.9042969 l -0.117187,2.12890627 -0.34375,0.03320313 -0.04883,-0.28320312 -0.06641,0.0605469 c -0.179723,0.16060378 -0.386064,0.23828125 -0.626953,0.23828125 -0.353869,0 -0.606667,-0.14218166 -0.779297,-0.44140625 v -0.001953 c -0.08365,-0.14068644 -0.125,-0.28965213 -0.125,-0.45312499 0,-0.35332613 0.148991,-0.61201743 0.460938,-0.79687503 0.144758,-0.083807 0.29913,-0.125 0.466797,-0.125 0.12175,0 0.23766,0.020891 0.347656,0.066406 l 0.07227,0.03125 -0.0039,-0.080078 c -0.0087,-0.1397152 -0.06748,-0.2617297 -0.171875,-0.3574219 -0.104265,-0.099921 -0.233337,-0.1503907 -0.376953,-0.1503907 -0.0791,1e-7 -0.15123,0.026568 -0.222656,0.056641 l -0.320313,-1.0878907 c 0.170485,-0.080425 0.348413,-0.1289062 0.542969,-0.1289062 z m 11.875,0.066406 c 0.484307,0 0.892678,0.1661145 1.236328,0.5058594 v 0.00195 c 0.343548,0.3357397 0.513672,0.7349594 0.513672,1.2109376 0,0.4800758 -0.170049,0.8848919 -0.513672,1.22460932 -0.343604,0.33579501 -0.751887,0.50195313 -1.236328,0.50195313 -0.487874,0 -0.898933,-0.16713515 -1.242187,-0.50195313 -0.343622,-0.33971742 -0.513672,-0.74453352 -0.513672,-1.22460932 0,-0.4759782 0.168171,-0.8751979 0.511719,-1.2109376 v -0.00195 h 0.002 c 0.343582,-0.3396784 0.753787,-0.5058593 1.242187,-0.5058594 z M 2.1425781,-3.2070313 0.19726562,-2.9824219 0.88476563,0.05078125 H 1.6269531 Z M 2.0234375,-3.0917969 1.5410156,-0.05078125 H 0.96484375 L 0.31835938,-2.8964844 Z m 22.1269535,0 -0.480469,3.04101565 H 23.091797 L 22.447266,-2.8964844 Z m -3.697266,1.1757813 c -0.159712,0 -0.301749,0.058006 -0.417969,0.1699219 -0.112159,0.1121589 -0.171875,0.252166 -0.171875,0.4082031 0,0.1597117 0.05949,0.3016769 0.171875,0.41406247 0.11622,0.11191558 0.258257,0.16992188 0.417969,0.16992188 0.163404,0 0.30731,-0.0573097 0.419922,-0.16992188 0.116536,-0.11221997 0.177734,-0.25390037 0.177734,-0.41406247 0,-0.1565 -0.06143,-0.2962053 -0.177734,-0.4082031 -0.112612,-0.1126122 -0.256518,-0.1699219 -0.419922,-0.1699219 z m 0,0.099609 c 0.140596,-10e-8 0.254222,0.04719 0.349609,0.1425781 0.0997,0.096002 0.146485,0.2044375 0.146485,0.3359375 0,0.1358378 -0.04702,0.2460169 -0.146485,0.34179685 -0.09539,0.0953878 -0.209013,0.14257812 -0.349609,0.14257812 -0.136288,0 -0.247876,-0.0464937 -0.347656,-0.14257812 -0.09561,-0.0956145 -0.140625,-0.20550855 -0.140625,-0.34179685 0,-0.131963 0.04478,-0.2400964 0.140625,-0.3359375 0.09978,-0.096084 0.211368,-0.1425782 0.347656,-0.1425781 z m 8.785156,0.00781 c -0.199702,0 -0.375232,0.072498 -0.515625,0.2128906 -0.136286,0.1362864 -0.207031,0.306195 -0.207031,0.4980469 0,0.19559415 0.07056,0.36743565 0.207031,0.5039062 0.140517,0.13625843 0.316278,0.20507813 0.515625,0.20507812 0.194944,0 0.365706,-0.0695008 0.501953,-0.20507812 0.140596,-0.1363353 0.212891,-0.30794973 0.212891,-0.5039062 0,-0.1922223 -0.07248,-0.3618928 -0.212891,-0.4980469 -0.136118,-0.1396875 -0.306641,-0.2128907 -0.501953,-0.2128906 z m 0,0.1015625 c 0.172044,0 0.311976,0.058236 0.431641,0.1816406 l 0.002,0.00195 c 0.123591,0.1198459 0.181641,0.2580035 0.181641,0.4257813 0,0.17204343 -0.05824,0.31197588 -0.181641,0.43164058 h -0.002 c -0.11953,0.11952944 -0.259235,0.17773437 -0.431641,0.17773437 -0.176652,0 -0.321829,-0.0579928 -0.445312,-0.17773437 -0.11953,-0.11952945 -0.177735,-0.25923483 -0.177735,-0.43164058 0,-0.1681482 0.05802,-0.3080208 0.177735,-0.4277344 0.123607,-0.1236076 0.269014,-0.1816407 0.445312,-0.1816406 z m -17.11914,0.6074218 c -0.07584,0 -0.145415,0.018362 -0.208985,0.054687 h -0.002 c -0.131909,0.0791458 -0.205078,0.20476289 -0.205078,0.35546878 0,0.0723333 0.01862,0.14195407 0.05469,0.20507812 h 0.002 c 0.07567,0.12463991 0.19793,0.19140625 0.347656,0.19140625 0.07584,0 0.147368,-0.0164091 0.210937,-0.0527344 0.132806,-0.0752563 0.205079,-0.20118303 0.205079,-0.35546874 0,-0.0716794 -0.01855,-0.13981367 -0.05469,-0.19921876 -0.07536,-0.12854597 -0.199394,-0.19921877 -0.349609,-0.19921877 z m 5.521484,0 c -0.07584,0 -0.147368,0.018362 -0.210938,0.054687 h -0.002 c -0.131909,0.0791458 -0.203125,0.20476289 -0.203125,0.35546878 0,0.0723333 0.01862,0.14195407 0.05469,0.20507812 0.07567,0.12463991 0.199884,0.19140625 0.349609,0.19140625 0.07584,0 0.145415,-0.0164091 0.208985,-0.0527344 0.132805,-0.0752563 0.207031,-0.20118303 0.207031,-0.35546874 0,-0.0716826 -0.0205,-0.13981171 -0.05664,-0.19921876 -0.07535,-0.12854597 -0.19744,-0.19921877 -0.347656,-0.19921877 z M 12.119141,-1 c 0.121784,0 0.203026,0.0449835 0.263672,0.1484375 v 0.001953 c 0.0272,0.0442023 0.04101,0.0927708 0.04101,0.14843751 0,0.12571428 -0.0471,0.2068344 -0.154297,0.26757812 -0.04843,0.0276747 -0.101952,0.0410156 -0.162109,0.0410156 -0.122275,1e-8 -0.201393,-0.043218 -0.261719,-0.14257812 -0.02793,-0.0488759 -0.04101,-0.0986302 -0.04101,-0.15429687 0,-0.12129412 0.04621,-0.20467703 0.154296,-0.26953126 C 12.007415,-0.98665906 12.058984,-1 12.119141,-1 Z m 5.521484,0 c 0.121784,0 0.201073,0.0449835 0.261719,0.1484375 v 0.001953 h 0.002 c 0.0272,0.0442023 0.03906,0.0927708 0.03906,0.14843751 0,0.12571428 -0.0471,0.2068344 -0.154297,0.26757812 -0.04843,0.0276747 -0.1,0.0410156 -0.160156,0.0410156 -0.122274,1e-8 -0.203346,-0.043218 -0.263672,-0.14257812 -0.02793,-0.0488759 -0.04102,-0.0986302 -0.04102,-0.15429687 0,-0.12129412 0.04816,-0.20467703 0.15625,-0.26953126 C 17.528445,-0.98603366 17.581149,-1 17.640625,-1 Z"
             id="text24"
             transform="translate(20.29,36.86)" />
        </g>
      </g>
    </g>
  </g>
</svg>
